<?xml version="1.0" encoding="iso-8859-1"?>
<!-- Generator: Adobe Illustrator 16.0.0, SVG Export Plug-In . SVG Version: 6.00 Build 0)  -->
<!DOCTYPE svg PUBLIC "-//W3C//DTD SVG 1.1//EN" "http://www.w3.org/Graphics/SVG/1.1/DTD/svg11.dtd">
<svg version="1.1" id="Capa_1" xmlns="http://www.w3.org/2000/svg" xmlns:xlink="http://www.w3.org/1999/xlink" x="0px" y="0px"
	 width="15" height="15" viewBox="0 0 470.23 470.23" style="enable-background:new 0 0 470.23 470.23;"
	 xml:space="preserve">
<g>
	<path d="M457.703,161.312c0-13.321-10.786-24.098-24.106-24.098h-24.098v52.211h24.098c13.32,0,24.106-10.787,24.106-24.098
		V161.312z"/>
	<path d="M457.703,222.884c0-13.311-10.786-24.097-24.106-24.097h-24.098v52.202h24.098c13.32,0,24.106-10.787,24.106-24.088
		V222.884z"/>
	<path d="M457.703,288.483v-4.016c0-13.312-10.786-24.098-24.106-24.098h-24.098v52.201h24.098
		C446.917,312.571,457.703,301.794,457.703,288.483z"/>
	<path d="M470.23,70.478v-3.356c0-13.311-10.347-21.038-23.113-17.27l-37.608,4.36v55.549l37.991-7.201
		C460.046,98.161,470.23,83.789,470.23,70.478z"/>
	<path d="M326.602,362.679h50.403c13.178,0,23.868-10.691,23.868-23.887V32.476c0-13.187-10.69-23.887-23.868-23.887H216.422
		c-13.196,0-23.858,10.701-23.858,23.887v80.574V213.36h32.207V54.575c0-3.634,2.955-6.579,6.579-6.579h130.71
		c3.652,0,6.578,2.945,6.578,6.579v235.821c0,3.643-2.936,6.58-6.578,6.58H245.157v40.85c-0.86,2.926-1.76,5.346-1.76,5.346h41.855
		c-2.447-2.668-3.978-6.195-3.978-10.107c0-8.301,6.731-15.041,15.042-15.041c8.29,0,15.013,6.74,15.013,15.041
		c0,3.902-1.521,7.43-3.969,10.107h23.371l-2.209,11.389C328.438,355.048,327.807,358.108,326.602,362.679z"/>
	<path d="M225.793,451.495c14-6.99,33.574-15.291,50.805-27.664c26.106-18.752,35.478-66.928,35.478-66.928h-69.491
		c-14.468,33.143-44.332,61.17-45.823,62.557c-1.836,1.713-4.169,2.555-6.493,2.555c-2.563,0-5.135-1.023-7.009-3.061
		c-3.596-3.863-3.366-9.916,0.497-13.512c0.373-0.334,35.276-33.105,44.992-66.135v-52.842h80.985
		c17.748,0,32.13-13.379,32.13-29.873c0-16.496-14.392-29.864-32.13-29.864H177.216v-93.387l-52.297,35.209
		c-15.214,9.123-32.809,29.912-39.292,46.426L1.123,443.702c-3.663,9.906,1.932,17.939,12.498,17.939h176.935
		C201.113,461.642,216.346,456.21,225.793,451.495z"/>
</g>
<g>
</g>
<g>
</g>
<g>
</g>
<g>
</g>
<g>
</g>
<g>
</g>
<g>
</g>
<g>
</g>
<g>
</g>
<g>
</g>
<g>
</g>
<g>
</g>
<g>
</g>
<g>
</g>
<g>
</g>
</svg>
